<svg xmlns="http://www.w3.org/2000/svg" viewBox="0 0 50 50"><title>RGB_Search</title><g id="Icons"><path d="M49.07,44.57,36.86,32.36a.62.62,0,0,0-.88,0l-.92.92L30.75,29A17.51,17.51,0,0,0,17.51,0,17.51,17.51,0,0,0,5.13,29.89,17.51,17.51,0,0,0,29,30.75l4.3,4.3-.92.92a.63.63,0,0,0,0,.88L44.57,49.07a3.18,3.18,0,0,0,4.5,0h0A3.18,3.18,0,0,0,49.07,44.57ZM28.54,27.69l-.85.85A15,15,0,0,1,6.9,6.9,15,15,0,0,1,28.54,27.69Z"/><path d="M18.18,7.62a.63.63,0,0,0-.67.62V9.5a.62.62,0,0,0,.58.62,7.42,7.42,0,0,1,6.81,6.81.62.62,0,0,0,.62.58h1.26a.63.63,0,0,0,.62-.67A9.92,9.92,0,0,0,18.18,7.62Z"/></g></svg>